<svg width="422" height="80" viewBox="0 0 422 80" fill="none" xmlns="http://www.w3.org/2000/svg">
<path d="M269.361 35.704V42.232H277.041V45.208H269.361V52.024H278.001V55H265.713V32.728H278.001V35.704H269.361ZM303.838 37.08C305.224 37.08 306.462 37.368 307.55 37.944C308.659 38.52 309.523 39.3733 310.142 40.504C310.782 41.6347 311.102 43 311.102 44.6V55H307.486V45.144C307.486 43.5653 307.091 42.36 306.302 41.528C305.512 40.6747 304.435 40.248 303.07 40.248C301.704 40.248 300.616 40.6747 299.806 41.528C299.016 42.36 298.622 43.5653 298.622 45.144V55H295.006V45.144C295.006 43.5653 294.611 42.36 293.822 41.528C293.032 40.6747 291.955 40.248 290.59 40.248C289.224 40.248 288.136 40.6747 287.326 41.528C286.536 42.36 286.142 43.5653 286.142 45.144V55H282.494V37.368H286.142V39.384C286.739 38.6587 287.496 38.0933 288.414 37.688C289.331 37.2827 290.312 37.08 291.358 37.08C292.766 37.08 294.024 37.3787 295.134 37.976C296.243 38.5733 297.096 39.4373 297.694 40.568C298.227 39.5013 299.059 38.6587 300.19 38.04C301.32 37.4 302.536 37.08 303.838 37.08ZM319.392 39.96C320.01 39.1493 320.853 38.4667 321.92 37.912C322.986 37.3573 324.192 37.08 325.536 37.08C327.072 37.08 328.469 37.464 329.728 38.232C331.008 38.9787 332.01 40.0347 332.736 41.4C333.461 42.7653 333.824 44.3333 333.824 46.104C333.824 47.8747 333.461 49.464 332.736 50.872C332.01 52.2587 331.008 53.3467 329.728 54.136C328.469 54.904 327.072 55.288 325.536 55.288C324.192 55.288 322.997 55.0213 321.952 54.488C320.906 53.9333 320.053 53.2507 319.392 52.44V63.384H315.744V37.368H319.392V39.96ZM330.112 46.104C330.112 44.888 329.856 43.8427 329.344 42.968C328.853 42.072 328.192 41.4 327.36 40.952C326.549 40.4827 325.674 40.248 324.736 40.248C323.818 40.248 322.944 40.4827 322.112 40.952C321.301 41.4213 320.64 42.104 320.128 43C319.637 43.896 319.392 44.952 319.392 46.168C319.392 47.384 319.637 48.4507 320.128 49.368C320.64 50.264 321.301 50.9467 322.112 51.416C322.944 51.8853 323.818 52.12 324.736 52.12C325.674 52.12 326.549 51.8853 327.36 51.416C328.192 50.9253 328.853 50.2213 329.344 49.304C329.856 48.3867 330.112 47.32 330.112 46.104ZM341.079 31.32V55H337.431V31.32H341.079ZM353.517 55.288C351.853 55.288 350.349 54.9147 349.005 54.168C347.661 53.4 346.605 52.3333 345.837 50.968C345.069 49.5813 344.685 47.9813 344.685 46.168C344.685 44.376 345.079 42.7867 345.869 41.4C346.658 40.0133 347.735 38.9467 349.101 38.2C350.466 37.4533 351.991 37.08 353.677 37.08C355.362 37.08 356.887 37.4533 358.253 38.2C359.618 38.9467 360.695 40.0133 361.485 41.4C362.274 42.7867 362.669 44.376 362.669 46.168C362.669 47.96 362.263 49.5493 361.453 50.936C360.642 52.3227 359.533 53.4 358.125 54.168C356.738 54.9147 355.202 55.288 353.517 55.288ZM353.517 52.12C354.455 52.12 355.33 51.896 356.141 51.448C356.973 51 357.645 50.328 358.157 49.432C358.669 48.536 358.925 47.448 358.925 46.168C358.925 44.888 358.679 43.8107 358.189 42.936C357.698 42.04 357.047 41.368 356.237 40.92C355.426 40.472 354.551 40.248 353.613 40.248C352.674 40.248 351.799 40.472 350.989 40.92C350.199 41.368 349.57 42.04 349.101 42.936C348.631 43.8107 348.397 44.888 348.397 46.168C348.397 48.0667 348.877 49.5387 349.837 50.584C350.818 51.608 352.045 52.12 353.517 52.12ZM382.147 37.368L371.331 63.288H367.555L371.139 54.712L364.195 37.368H368.259L373.219 50.808L378.371 37.368H382.147ZM401.06 45.752C401.06 46.4133 401.017 47.0107 400.932 47.544H387.46C387.567 48.952 388.089 50.0827 389.028 50.936C389.967 51.7893 391.119 52.216 392.484 52.216C394.447 52.216 395.833 51.3947 396.644 49.752H400.58C400.047 51.3733 399.076 52.7067 397.668 53.752C396.281 54.776 394.553 55.288 392.484 55.288C390.799 55.288 389.284 54.9147 387.94 54.168C386.617 53.4 385.572 52.3333 384.804 50.968C384.057 49.5813 383.684 47.9813 383.684 46.168C383.684 44.3547 384.047 42.7653 384.772 41.4C385.519 40.0133 386.553 38.9467 387.876 38.2C389.22 37.4533 390.756 37.08 392.484 37.08C394.148 37.08 395.631 37.4427 396.932 38.168C398.233 38.8933 399.247 39.9173 399.972 41.24C400.697 42.5413 401.06 44.0453 401.06 45.752ZM397.252 44.6C397.231 43.256 396.751 42.1787 395.812 41.368C394.873 40.5573 393.711 40.152 392.324 40.152C391.065 40.152 389.988 40.5573 389.092 41.368C388.196 42.1573 387.663 43.2347 387.492 44.6H397.252ZM420.81 45.752C420.81 46.4133 420.767 47.0107 420.682 47.544H407.21C407.317 48.952 407.839 50.0827 408.778 50.936C409.717 51.7893 410.869 52.216 412.234 52.216C414.197 52.216 415.583 51.3947 416.394 49.752H420.33C419.797 51.3733 418.826 52.7067 417.418 53.752C416.031 54.776 414.303 55.288 412.234 55.288C410.549 55.288 409.034 54.9147 407.69 54.168C406.367 53.4 405.322 52.3333 404.554 50.968C403.807 49.5813 403.434 47.9813 403.434 46.168C403.434 44.3547 403.797 42.7653 404.522 41.4C405.269 40.0133 406.303 38.9467 407.626 38.2C408.97 37.4533 410.506 37.08 412.234 37.08C413.898 37.08 415.381 37.4427 416.682 38.168C417.983 38.8933 418.997 39.9173 419.722 41.24C420.447 42.5413 420.81 44.0453 420.81 45.752ZM417.002 44.6C416.981 43.256 416.501 42.1787 415.562 41.368C414.623 40.5573 413.461 40.152 412.074 40.152C410.815 40.152 409.738 40.5573 408.842 41.368C407.946 42.1573 407.413 43.2347 407.242 44.6H417.002Z" fill="url(#paint0_radial_74_1011)"/>
<path d="M227.902 47.7258H210.28C210.384 50.6121 211.209 52.7112 212.757 54.0231C214.304 55.3205 216.641 55.9692 219.766 55.9692C221.77 55.9692 224.055 55.6193 226.62 54.9196V57.784C224.084 58.4837 221.638 58.8335 219.279 58.8335C215.078 58.8335 211.902 57.835 209.75 55.838C207.598 53.8263 206.522 50.736 206.522 46.567C206.522 43.9285 206.949 41.6982 207.804 39.8761C208.674 38.0394 209.919 36.6546 211.541 35.7216C213.177 34.7887 215.137 34.3222 217.422 34.3222C220.797 34.3222 223.384 35.3791 225.183 37.4927C226.996 39.6064 227.902 42.6676 227.902 46.6763V47.7258ZM217.378 36.9024C215.108 36.9024 213.368 37.5948 212.16 38.9796C210.966 40.3498 210.332 42.4635 210.258 45.3206H224.365C224.291 42.4489 223.672 40.328 222.507 38.9577C221.343 37.5875 219.633 36.9024 217.378 36.9024Z" fill="white"/>
<path d="M187.818 68.4763C186.492 68.4763 185.091 68.3742 183.617 68.1701C182.158 67.9661 180.787 67.6599 179.505 67.2518V64.2125C182.364 65.0871 185.084 65.5244 187.664 65.5244C189.727 65.5244 191.393 65.262 192.66 64.7372C193.943 64.2271 194.886 63.3962 195.49 62.2446C196.11 61.093 196.419 59.5624 196.419 57.6528V55.7068H196.22C195.262 56.6543 194.112 57.3904 192.771 57.9152C191.43 58.4254 189.956 58.6805 188.349 58.6805C186.33 58.6805 184.531 58.2723 182.954 57.456C181.392 56.6251 180.153 55.3423 179.24 53.6077C178.34 51.8584 177.891 49.6719 177.891 47.048C177.891 42.8644 179.026 39.7012 181.296 37.5583C183.581 35.4009 186.949 34.3222 191.4 34.3222C194.481 34.3222 197.392 34.7231 200.134 35.5248V57.0624C200.134 59.7446 199.684 61.9239 198.785 63.6002C197.886 65.2766 196.53 66.5084 194.717 67.2955C192.918 68.0827 190.619 68.4763 187.818 68.4763ZM189.366 55.5974C190.707 55.5974 191.99 55.3569 193.213 54.8759C194.451 54.3948 195.52 53.6587 196.419 52.6675V37.9301C194.842 37.5073 193.051 37.296 191.046 37.296C187.921 37.296 185.57 38.0685 183.993 39.6137C182.431 41.1589 181.65 43.5276 181.65 46.72C181.65 49.8395 182.335 52.0989 183.706 53.4983C185.091 54.8977 186.978 55.5974 189.366 55.5974Z" fill="white"/>
<path d="M161.618 34.3222C163.946 34.3222 165.855 34.5992 167.344 35.1531C168.847 35.7071 169.975 36.6327 170.727 37.9301C171.493 39.2274 171.877 40.9767 171.877 43.1778V58.4181H168.737L168.472 55.7286H168.228C167.329 56.6761 166.165 57.4269 164.735 57.9808C163.32 58.5347 161.831 58.8117 160.269 58.8117C158.559 58.8117 157.092 58.5493 155.869 58.0245C154.66 57.4852 153.739 56.7272 153.105 55.7505C152.486 54.7738 152.177 53.6295 152.177 52.3176C152.177 50.2622 152.928 48.6733 154.432 47.5509C155.95 46.4139 158.375 45.685 161.706 45.3643L168.206 44.6647V43.0029C168.206 41.5014 167.948 40.3353 167.432 39.5044C166.917 38.6589 166.15 38.0685 165.133 37.7333C164.131 37.398 162.811 37.2304 161.175 37.2304C160.04 37.2304 158.832 37.3251 157.549 37.5146C156.267 37.7041 155.029 37.9956 153.835 38.3892V35.503C154.955 35.124 156.208 34.8324 157.593 34.6284C158.979 34.4243 160.32 34.3222 161.618 34.3222ZM161.109 56.1003C162.436 56.1003 163.711 55.8598 164.934 55.3788C166.157 54.8832 167.248 54.1543 168.206 53.1922V47.048L161.927 47.7258C159.79 47.9736 158.257 48.4401 157.328 49.1252C156.414 49.8104 155.957 50.7797 155.957 52.0333C155.957 53.3307 156.385 54.3365 157.24 55.0508C158.095 55.7505 159.384 56.1003 161.109 56.1003Z" fill="white"/>
<path d="M147.318 26.057H151.01L140.508 58.4181H135.599L126.114 29.7523L116.607 58.4181H111.698L101.152 26.057H105.065L114.351 55.1383L123.947 26.057H128.391L137.943 55.2694L147.318 26.057Z" fill="white"/>
<path d="M243.185 29.9302C244.74 30.2363 245.931 30.8294 246.757 31.7094C247.583 32.5895 247.996 33.7278 247.996 35.1244C247.996 37.0758 247.286 38.5872 245.868 39.6586C244.458 40.7299 242.306 41.2656 239.41 41.2656C238.399 41.2656 237.384 41.1891 236.363 41.036C235.343 40.883 234.386 40.663 233.492 40.376V38.4533C234.454 38.7403 235.435 38.9651 236.436 39.1277C237.447 39.2807 238.419 39.3573 239.352 39.3573C243.53 39.3573 245.62 37.9033 245.62 34.9953C245.62 32.3647 243.759 31.0494 240.037 31.0494H236.699V29.141H238.477C242.695 29.141 244.803 27.797 244.803 25.109C244.803 23.9325 244.356 23.0189 243.462 22.3685C242.578 21.718 241.295 21.3927 239.614 21.3927C237.738 21.3927 235.926 21.6654 234.177 22.2106V20.2879C235.022 20.0296 235.931 19.8335 236.903 19.6996C237.875 19.5561 238.841 19.4844 239.804 19.4844C241.388 19.4844 242.734 19.7044 243.841 20.1444C244.959 20.5749 245.8 21.2014 246.363 22.0241C246.937 22.8372 247.223 23.8129 247.223 24.9512C247.223 26.1756 246.864 27.2183 246.145 28.0792C245.435 28.9306 244.449 29.5476 243.185 29.9302Z" fill="url(#paint1_linear_74_1011)"/>
<path d="M80 40C80 62.0914 62.0914 80 40 80C17.9086 80 0 62.0914 0 40C0 17.9086 17.9086 0 40 0C62.0914 0 80 17.9086 80 40Z" fill="url(#paint2_radial_74_1011)"/>
<mask id="mask0_74_1011" style="mask-type:alpha" maskUnits="userSpaceOnUse" x="0" y="0" width="80" height="80">
<path d="M80 40C80 62.0914 62.0914 80 40 80C17.9086 80 0 62.0914 0 40C0 17.9086 17.9086 0 40 0C62.0914 0 80 17.9086 80 40Z" fill="url(#paint3_radial_74_1011)"/>
</mask>
<g mask="url(#mask0_74_1011)">
<g filter="url(#filter0_di_74_1011)">
<path d="M12.5334 45.7333C5.28005 46.6933 -2.39995 39.6889 -5.19995 34.8V94.8H100.267V25.0667C94.2223 26.1333 80.96 29.5733 76.2667 34.8C70.4 41.3333 64 48.2667 54.2667 48.2667C44.5334 48.2667 40.5334 34.8 32.4 34.8C24.2667 34.8 21.6 44.5333 12.5334 45.7333Z" fill="url(#paint4_linear_74_1011)"/>
</g>
<g filter="url(#filter1_di_74_1011)">
<path d="M8.9333 51.7831C1.67997 52.7431 -3.0667 49.872 -5.8667 44.9831V104.983H99.6V35.2498C94.9333 22.3165 79.8933 37.3565 75.2 42.5831C69.3333 49.1165 64.2666 55.7831 54.5333 55.7831C47.7333 55.7831 39.3333 42.5831 29.2 42.5831C19.0666 42.5831 18 50.5831 8.9333 51.7831Z" fill="url(#paint5_linear_74_1011)"/>
</g>
<g filter="url(#filter2_di_74_1011)">
<path d="M21.2 62.2226C13.9721 61.0868 11.0667 58.4893 -0.533325 58.4893L1.20001 118.006H106.667V48.2724C102 35.3391 89.8667 45.9559 82.9333 51.8226C76.2302 57.4945 69.7333 62.2226 60 62.2226C50.2667 62.2226 45.7333 55.2893 38.8 53.956C31.8667 52.6226 30.5333 63.6893 21.2 62.2226Z" fill="url(#paint6_linear_74_1011)"/>
</g>
<g filter="url(#filter3_di_74_1011)">
<path d="M18.361 71.5195C13.3261 71.0803 3.2869 67.185 -1.14331 64.2931L-0.344096 84.2771L81.0469 77.4192C82.0346 70.9746 83.0883 59.9956 76.7731 63.9792C69.0938 68.8233 59.5068 72.6762 53.5063 72.7827C47.5057 72.8892 42.2207 68.8576 35.5594 69.124C28.898 69.3904 24.6547 72.0684 18.361 71.5195Z" fill="url(#paint7_linear_74_1011)"/>
</g>
</g>
<defs>
<filter id="filter0_di_74_1011" x="-7.19995" y="22.5667" width="109.467" height="73.7333" filterUnits="userSpaceOnUse" color-interpolation-filters="sRGB">
<feFlood flood-opacity="0" result="BackgroundImageFix"/>
<feColorMatrix in="SourceAlpha" type="matrix" values="0 0 0 0 0 0 0 0 0 0 0 0 0 0 0 0 0 0 127 0" result="hardAlpha"/>
<feOffset dy="-0.5"/>
<feGaussianBlur stdDeviation="1"/>
<feComposite in2="hardAlpha" operator="out"/>
<feColorMatrix type="matrix" values="0 0 0 0 0.0554167 0 0 0 0 0.21276 0 0 0 0 0.316667 0 0 0 0.8 0"/>
<feBlend mode="hard-light" in2="BackgroundImageFix" result="effect1_dropShadow_74_1011"/>
<feBlend mode="normal" in="SourceGraphic" in2="effect1_dropShadow_74_1011" result="shape"/>
<feColorMatrix in="SourceAlpha" type="matrix" values="0 0 0 0 0 0 0 0 0 0 0 0 0 0 0 0 0 0 127 0" result="hardAlpha"/>
<feOffset dx="0.5" dy="1"/>
<feGaussianBlur stdDeviation="0.5"/>
<feComposite in2="hardAlpha" operator="arithmetic" k2="-1" k3="1"/>
<feColorMatrix type="matrix" values="0 0 0 0 0.0235294 0 0 0 0 0.917647 0 0 0 0 0.913725 0 0 0 0.5 0"/>
<feBlend mode="normal" in2="shape" result="effect2_innerShadow_74_1011"/>
</filter>
<filter id="filter1_di_74_1011" x="-9.8667" y="20.1333" width="117.467" height="88.8498" filterUnits="userSpaceOnUse" color-interpolation-filters="sRGB">
<feFlood flood-opacity="0" result="BackgroundImageFix"/>
<feColorMatrix in="SourceAlpha" type="matrix" values="0 0 0 0 0 0 0 0 0 0 0 0 0 0 0 0 0 0 127 0" result="hardAlpha"/>
<feOffset dx="2" dy="-4"/>
<feGaussianBlur stdDeviation="3"/>
<feComposite in2="hardAlpha" operator="out"/>
<feColorMatrix type="matrix" values="0 0 0 0 0.0235294 0 0 0 0 0.917647 0 0 0 0 0.913725 0 0 0 1 0"/>
<feBlend mode="overlay" in2="BackgroundImageFix" result="effect1_dropShadow_74_1011"/>
<feBlend mode="normal" in="SourceGraphic" in2="effect1_dropShadow_74_1011" result="shape"/>
<feColorMatrix in="SourceAlpha" type="matrix" values="0 0 0 0 0 0 0 0 0 0 0 0 0 0 0 0 0 0 127 0" result="hardAlpha"/>
<feOffset dx="-2" dy="4"/>
<feGaussianBlur stdDeviation="5"/>
<feComposite in2="hardAlpha" operator="arithmetic" k2="-1" k3="1"/>
<feColorMatrix type="matrix" values="0 0 0 0 0.114112 0 0 0 0 0.0820283 0 0 0 0 0.242448 0 0 0 0.41 0"/>
<feBlend mode="overlay" in2="shape" result="effect2_innerShadow_74_1011"/>
</filter>
<filter id="filter2_di_74_1011" x="-3.53333" y="34.1333" width="119.2" height="87.8724" filterUnits="userSpaceOnUse" color-interpolation-filters="sRGB">
<feFlood flood-opacity="0" result="BackgroundImageFix"/>
<feColorMatrix in="SourceAlpha" type="matrix" values="0 0 0 0 0 0 0 0 0 0 0 0 0 0 0 0 0 0 127 0" result="hardAlpha"/>
<feOffset dx="3" dy="-2"/>
<feGaussianBlur stdDeviation="3"/>
<feComposite in2="hardAlpha" operator="out"/>
<feColorMatrix type="matrix" values="0 0 0 0 0.0235294 0 0 0 0 0.917647 0 0 0 0 0.913725 0 0 0 1 0"/>
<feBlend mode="overlay" in2="BackgroundImageFix" result="effect1_dropShadow_74_1011"/>
<feBlend mode="normal" in="SourceGraphic" in2="effect1_dropShadow_74_1011" result="shape"/>
<feColorMatrix in="SourceAlpha" type="matrix" values="0 0 0 0 0 0 0 0 0 0 0 0 0 0 0 0 0 0 127 0" result="hardAlpha"/>
<feOffset dy="4"/>
<feGaussianBlur stdDeviation="5"/>
<feComposite in2="hardAlpha" operator="arithmetic" k2="-1" k3="1"/>
<feColorMatrix type="matrix" values="0 0 0 0 0.114112 0 0 0 0 0.0820283 0 0 0 0 0.242448 0 0 0 0.41 0"/>
<feBlend mode="normal" in2="shape" result="effect2_innerShadow_74_1011"/>
</filter>
<filter id="filter3_di_74_1011" x="-1.14331" y="55.1305" width="94.9371" height="33.1466" filterUnits="userSpaceOnUse" color-interpolation-filters="sRGB">
<feFlood flood-opacity="0" result="BackgroundImageFix"/>
<feColorMatrix in="SourceAlpha" type="matrix" values="0 0 0 0 0 0 0 0 0 0 0 0 0 0 0 0 0 0 127 0" result="hardAlpha"/>
<feOffset dx="6" dy="-2"/>
<feGaussianBlur stdDeviation="3"/>
<feComposite in2="hardAlpha" operator="out"/>
<feColorMatrix type="matrix" values="0 0 0 0 0.0235294 0 0 0 0 0.917647 0 0 0 0 0.913725 0 0 0 0.8 0"/>
<feBlend mode="overlay" in2="BackgroundImageFix" result="effect1_dropShadow_74_1011"/>
<feBlend mode="normal" in="SourceGraphic" in2="effect1_dropShadow_74_1011" result="shape"/>
<feColorMatrix in="SourceAlpha" type="matrix" values="0 0 0 0 0 0 0 0 0 0 0 0 0 0 0 0 0 0 127 0" result="hardAlpha"/>
<feOffset dy="4"/>
<feGaussianBlur stdDeviation="5"/>
<feComposite in2="hardAlpha" operator="arithmetic" k2="-1" k3="1"/>
<feColorMatrix type="matrix" values="0 0 0 0 0.114112 0 0 0 0 0.0820283 0 0 0 0 0.242448 0 0 0 0.41 0"/>
<feBlend mode="normal" in2="shape" result="effect2_innerShadow_74_1011"/>
</filter>
<radialGradient id="paint0_radial_74_1011" cx="0" cy="0" r="1" gradientUnits="userSpaceOnUse" gradientTransform="translate(403.843 31.5692) rotate(157.298) scale(125.009 85.4565)">
<stop stop-color="#7388FF"/>
<stop offset="0.503425" stop-color="#CA73FF"/>
<stop offset="1" stop-color="#FF739D"/>
</radialGradient>
<linearGradient id="paint1_linear_74_1011" x1="261.726" y1="19.3916" x2="236.384" y2="16.5129" gradientUnits="userSpaceOnUse">
<stop stop-color="#7388FF"/>
<stop offset="0.503425" stop-color="#CA73FF"/>
<stop offset="1" stop-color="#FF739D"/>
</linearGradient>
<radialGradient id="paint2_radial_74_1011" cx="0" cy="0" r="1" gradientUnits="userSpaceOnUse" gradientTransform="translate(70.8642 19.2821) rotate(125.815) scale(99.1598 90.3428)">
<stop stop-color="#7388FF"/>
<stop offset="0.503425" stop-color="#CA73FF"/>
<stop offset="1" stop-color="#FF739D"/>
</radialGradient>
<radialGradient id="paint3_radial_74_1011" cx="0" cy="0" r="1" gradientUnits="userSpaceOnUse" gradientTransform="translate(70.8642 19.2821) rotate(125.815) scale(99.1598 90.3428)">
<stop stop-color="#7388FF"/>
<stop offset="0.503425" stop-color="#CA73FF"/>
<stop offset="1" stop-color="#FF739D"/>
</radialGradient>
<linearGradient id="paint4_linear_74_1011" x1="-0.266618" y1="41.7333" x2="76.0552" y2="59.4827" gradientUnits="userSpaceOnUse">
<stop stop-color="#014993"/>
<stop offset="0.295971" stop-color="#0781C3"/>
<stop offset="0.679525" stop-color="#0DB4CD"/>
<stop offset="1" stop-color="#06EAE9"/>
</linearGradient>
<linearGradient id="paint5_linear_74_1011" x1="4.39997" y1="42.9333" x2="64.4475" y2="75.9515" gradientUnits="userSpaceOnUse">
<stop stop-color="#083D7F"/>
<stop offset="0.394486" stop-color="#0781C3"/>
<stop offset="0.830998" stop-color="#0DB4CD"/>
<stop offset="1" stop-color="#06EAE9"/>
</linearGradient>
<linearGradient id="paint6_linear_74_1011" x1="22.1333" y1="49.2" x2="70.8" y2="70.5333" gradientUnits="userSpaceOnUse">
<stop stop-color="#004892"/>
<stop offset="0.56387" stop-color="#0781C3"/>
<stop offset="1" stop-color="#07EAE9"/>
</linearGradient>
<linearGradient id="paint7_linear_74_1011" x1="34" y1="66.2667" x2="48.6667" y2="90.4" gradientUnits="userSpaceOnUse">
<stop stop-color="#004892"/>
<stop offset="0.4625" stop-color="#016BB1"/>
<stop offset="1" stop-color="#0DB4CD"/>
</linearGradient>
</defs>
</svg>
